<?xml version="1.0" standalone="no"?><svg xmlns="http://www.w3.org/2000/svg" viewBox="0 0 1440 320"><path fill="#9FB8AD" fill-opacity="1" d="M0,32L34.3,74.7C68.6,117,137,203,206,208C274.3,213,343,139,411,117.3C480,96,549,128,617,133.3C685.7,139,754,117,823,122.7C891.4,128,960,160,1029,192C1097.1,224,1166,256,1234,266.7C1302.9,277,1371,267,1406,261.3L1440,256L1440,320L1405.7,320C1371.4,320,1303,320,1234,320C1165.7,320,1097,320,1029,320C960,320,891,320,823,320C754.3,320,686,320,617,320C548.6,320,480,320,411,320C342.9,320,274,320,206,320C137.1,320,69,320,34,320L0,320Z"></path></svg>