<svg id="visual" viewBox="0 0 675 900" width="675" height="900" xmlns="http://www.w3.org/2000/svg" xmlns:xlink="http://www.w3.org/1999/xlink" version="1.1"><rect x="0" y="0" width="675" height="900" fill="#f1f5f3"></rect><defs><linearGradient id="grad1_0" x1="0%" y1="0%" x2="100%" y2="100%"><stop offset="30%" stop-color="#cfdbd6" stop-opacity="1"></stop><stop offset="70%" stop-color="#cfdbd6" stop-opacity="1"></stop></linearGradient></defs><defs><linearGradient id="grad1_1" x1="0%" y1="0%" x2="100%" y2="100%"><stop offset="30%" stop-color="#cfdbd6" stop-opacity="1"></stop><stop offset="70%" stop-color="#dae4df" stop-opacity="1"></stop></linearGradient></defs><defs><linearGradient id="grad1_2" x1="0%" y1="0%" x2="100%" y2="100%"><stop offset="30%" stop-color="#e6ece9" stop-opacity="1"></stop><stop offset="70%" stop-color="#dae4df" stop-opacity="1"></stop></linearGradient></defs><defs><linearGradient id="grad1_3" x1="0%" y1="0%" x2="100%" y2="100%"><stop offset="30%" stop-color="#e6ece9" stop-opacity="1"></stop><stop offset="70%" stop-color="#f1f5f3" stop-opacity="1"></stop></linearGradient></defs><defs><linearGradient id="grad2_0" x1="0%" y1="0%" x2="100%" y2="100%"><stop offset="30%" stop-color="#cfdbd6" stop-opacity="1"></stop><stop offset="70%" stop-color="#cfdbd6" stop-opacity="1"></stop></linearGradient></defs><defs><linearGradient id="grad2_1" x1="0%" y1="0%" x2="100%" y2="100%"><stop offset="30%" stop-color="#dae4df" stop-opacity="1"></stop><stop offset="70%" stop-color="#cfdbd6" stop-opacity="1"></stop></linearGradient></defs><defs><linearGradient id="grad2_2" x1="0%" y1="0%" x2="100%" y2="100%"><stop offset="30%" stop-color="#dae4df" stop-opacity="1"></stop><stop offset="70%" stop-color="#e6ece9" stop-opacity="1"></stop></linearGradient></defs><defs><linearGradient id="grad2_3" x1="0%" y1="0%" x2="100%" y2="100%"><stop offset="30%" stop-color="#f1f5f3" stop-opacity="1"></stop><stop offset="70%" stop-color="#e6ece9" stop-opacity="1"></stop></linearGradient></defs><g transform="translate(675, 0)"><path d="M0 470C-55.6 449.5 -111.2 428.9 -169.5 409.3C-227.9 389.6 -289.1 370.9 -331.6 331.6C-374.2 292.3 -398.1 232.4 -419.4 173.7C-440.8 115 -459.4 57.5 -478.1 0L0 0Z" fill="#ebf1ee"></path><path d="M0 352.5C-41.7 337.1 -83.4 321.7 -127.1 307C-170.9 292.2 -216.8 278.2 -248.7 248.7C-280.6 219.2 -298.6 174.3 -314.6 130.3C-330.6 86.3 -344.6 43.1 -358.6 0L0 0Z" fill="#e0e8e4"></path><path d="M0 235C-27.8 224.7 -55.6 214.5 -84.8 204.6C-114 194.8 -144.5 185.5 -165.8 165.8C-187.1 146.2 -199.1 116.2 -209.7 86.9C-220.4 57.5 -229.7 28.8 -239.1 0L0 0Z" fill="#d5dfdb"></path><path d="M0 117.5C-13.9 112.4 -27.8 107.2 -42.4 102.3C-57 97.4 -72.3 92.7 -82.9 82.9C-93.5 73.1 -99.5 58.1 -104.9 43.4C-110.2 28.8 -114.9 14.4 -119.5 0L0 0Z" fill="#cfdbd6"></path></g><g transform="translate(0, 900)"><path d="M0 -474C55.4 -452.3 110.9 -430.6 170.7 -412.1C230.5 -393.5 294.6 -378.1 338.1 -338.1C381.5 -298.1 404.2 -233.4 417.6 -173C431 -112.5 435 -56.3 439 0L0 0Z" fill="#ebf1ee"></path><path d="M0 -355.5C41.6 -339.2 83.2 -322.9 128 -309C172.9 -295.1 221 -283.6 253.6 -253.6C286.1 -223.5 303.2 -175.1 313.2 -129.7C323.2 -84.4 326.2 -42.2 329.3 0L0 0Z" fill="#e0e8e4"></path><path d="M0 -237C27.7 -226.1 55.4 -215.3 85.3 -206C115.2 -196.8 147.3 -189.1 169 -169C190.8 -149 202.1 -116.7 208.8 -86.5C215.5 -56.3 217.5 -28.1 219.5 0L0 0Z" fill="#d5dfdb"></path><path d="M0 -118.5C13.9 -113.1 27.7 -107.6 42.7 -103C57.6 -98.4 73.7 -94.5 84.5 -84.5C95.4 -74.5 101.1 -58.4 104.4 -43.2C107.7 -28.1 108.7 -14.1 109.8 0L0 0Z" fill="#cfdbd6"></path></g></svg>