<?xml version="1.0" standalone="no"?><svg xmlns="http://www.w3.org/2000/svg" viewBox="0 0 1440 320"><path fill="#CFDBD6" fill-opacity="1" d="M0,128L40,138.7C80,149,160,171,240,186.7C320,203,400,213,480,234.7C560,256,640,288,720,304C800,320,880,320,960,282.7C1040,245,1120,171,1200,122.7C1280,75,1360,53,1400,42.7L1440,32L1440,320L1400,320C1360,320,1280,320,1200,320C1120,320,1040,320,960,320C880,320,800,320,720,320C640,320,560,320,480,320C400,320,320,320,240,320C160,320,80,320,40,320L0,320Z"></path></svg>